# xmcd
#
# Track frame offsets: 
#        150
#        23052
#        39991
#        63599
#        85522
#        102188
#        130748
#        150834
#        169951
#        191850
#        212231
#        232066
#        245091
#        263907
#        283271
#        301821
#
# Disc length: 4361 seconds
#
# Revision: 0
# Processed by: cddbd v1.5.2PL0 Copyright (c) Steve Scherf et al.
# Submitted via: ExactAudioCopyFreeDBPlugin 1.0
#
DISCID=dc110710
DTITLE=群星 - 试机23号
DYEAR=2010
DGENRE=Acid
TTITLE0=黄玫瑰
TTITLE1=阿瓦人民唱新歌
TTITLE2=玻璃心
TTITLE3=我最亲爱的
TTITLE4=寒傲似心
TTITLE5=父亲的草原母亲的河
TTITLE6=独角戏
TTITLE7=在心里从此有个你
TTITLE8=小小新娘花
TTITLE9=北国之春
TTITLE10=小路
TTITLE11=那天晚上
TTITLE12=山歌好比春江水
TTITLE13=天意人心
TTITLE14=牧羊曲
TTITLE15=掌声响起
EXTD=
EXTT0=
EXTT1=
EXTT2=
EXTT3=
EXTT4=
EXTT5=
EXTT6=
EXTT7=
EXTT8=
EXTT9=
EXTT10=
EXTT11=
EXTT12=
EXTT13=
EXTT14=
EXTT15=
PLAYORDER=
